<svg aria-hidden="true" style="position: absolute; width: 0; height: 0; overflow: hidden;" version="1.1" xmlns="http://www.w3.org/2000/svg" xmlns:xlink="http://www.w3.org/1999/xlink">
<defs>
<symbol id="icon-logo" viewBox="0 0 106 32">
<path fill="#fff" style="fill: var(--color1, #fff)" d="M0 10.306l1.54-7.827h16.192l-1.436 7.827h-3.9l-2.668 13.571c-0.035 0.132-0.046 0.275-0.046 0.429 0 0.337 0.068 0.979 0.57 0.979 0.764 0 1.505-0.52 2.144-0.826l-1.768 7c-1.3 0.296-2.611 0.541-3.968 0.541-3.261 0-6.42-0.908-6.42-4.275 0-0.072 0-0.143 0.023-0.215l3.387-17.203-3.65-0.001z"></path>
<path fill="#fff" style="fill: var(--color1, #fff)" d="M36.649 16.786l-13.136 7.704c0.821 0.735 1.711 1.387 2.93 1.387 3.33 0 5.804-2.806 7.857-4.796l-1.562 7.929c-2.896 1.857-6.545 2.897-10.115 2.897-5.713 0-9.624-4.234-9.624-9.153 0-6.725 7.446-13.602 15.029-13.602 2.497 0 4.869 1.082 6.466 2.776 1.369 1.46 2.041 2.99 2.156 4.858v0zM34.357 31.459l4.333-22.041h8.723c-0.034 0.408-0.068 0.817-0.068 1.214 0 0.378 0.103 0.735 0.217 1.092 1.414-1.408 3.398-2.582 5.576-2.582 3.136 0 5.964 2.041 5.964 4.949 0 0.357-0.035 0.714-0.102 1.061l-3.215 16.306h-8.928l2.714-13.745c0.023-0.133 0.034-0.256 0.034-0.388 0-0.796-0.741-1.378-1.619-1.378-0.957 0-1.585 0.694-1.744 1.49l-2.885 14.021h-8.998zM56.822 31.459l4.345-22.041h8.734v0.51c0 0.735 0.15 1.337 0.605 1.949 0.513-0.582 1.083-1.133 1.802-1.52 1.574-0.827 3.569-1.214 5.381-1.214 0.73 0 1.358 0.184 2.019 0.459 0.547 1.418 1.437 2.51 2.542 3.622l-3.591 18.235h-9.066l2.68-13.582c0.035-0.184 0.045-0.368 0.045-0.551 0-0.787-0.456-1.491-1.437-1.491-1.003 0-1.653 0.806-1.814 1.623l-2.771 14-9.475-0zM79.741 31.459l3.466-17.612c1.551 1.173 2.953 1.734 5.007 1.734 1.197 0 2.349-0.245 3.5-0.52l-3.226 16.398h-8.746z"></path>
<path fill="#fff" style="fill: var(--color1, #fff)" d="M83.857 13.224c0.879-0.225 1.757-0.439 2.68-0.439 1.631 0 3.114 0.755 4.515 1.429-0.89 0.255-1.814 0.52-2.747 0.52-1.677 0.001-3.114-0.642-4.449-1.51v0zM81.599 11.092c-0.752-1.163-1.448-2.367-1.448-3.745 0-2.010 1.197-3.561 2.657-4.979 2.611 1.755 5.144 2.796 8.472 2.796 1.552 0 3.045-0.377 4.516-0.796 0.536 0.949 1.060 1.949 1.060 3.031 0 2.051-1.174 3.734-2.691 5.194-2.246-1.336-4.641-2.489-7.423-2.489-1.779-0.001-3.478 0.489-5.144 0.989v0zM85.51 0.735c1.050-0.388 2.099-0.735 3.239-0.735 2.018 0 3.661 0.541 5.155 1.755-0.913 0.408-1.837 0.755-2.874 0.755-2.063 0-3.888-0.673-5.519-1.775v0zM89.616 30.643l1.493-7.531c0.593 0.572 2.133 2.204 3.17 2.204 0.787 0 0.924-1.133 0.924-1.633 0-0.766-0.194-1.47-0.719-2.102-1.152-1.377-2.634-2.602-2.634-4.448 0-0.756 0.182-1.5 0.377-2.225 2.633-1.030 4.082-2.714 4.891-5.143h9.317l-1.311 6.674c-0.639-0.603-1.391-1.306-2.383-1.306-0.879 0-1.528 0.868-1.528 1.582 0 1.102 0.616 2.337 1.413 3.163l1.448 1.491c0.696 0.714 1.027 1.663 1.027 2.601 0 1.766-1.129 3.449-2.417 4.715-2.191 2.143-4.403 2.826-7.664 2.826-1.869-0-3.625-0.368-5.404-0.867v0z"></path>
<path fill="#fff" style="fill: var(--color1, #fff)" d="M21.552 20.939c2.292-0.593 5.781-3.429 6.283-5.521-0.388-0.081-0.787-0.163-1.186-0.163-2.315 0-5.245 2.398-5.245 4.5 0 0.398 0.068 0.797 0.148 1.185v0z"></path>
</symbol>
</defs>
</svg>